<svg width="112" height="38" viewBox="0 0 112 38" fill="none" xmlns="http://www.w3.org/2000/svg">
<g id="Header Nav Bar Logo">
<g id="Kokoroko logo">
<path d="M0 12.1132C8.29977 12.1132 16.5995 12.1132 25.1508 12.1132C25.1508 20.6559 25.1508 29.1985 25.1508 38C16.8511 38 8.55128 38 0 38C0 29.4574 0 20.9147 0 12.1132ZM18.8908 16.2859C18.8061 16.3027 18.8061 16.3027 18.7196 16.3199C18.5333 16.357 18.347 16.3946 18.1607 16.4322C18.0312 16.4581 17.9016 16.484 17.7721 16.5098C17.5008 16.5641 17.2295 16.6185 16.9583 16.6731C16.6103 16.7432 16.2622 16.8129 15.9141 16.8824C15.6467 16.9359 15.3793 16.9894 15.1119 17.0431C14.9836 17.0688 14.8552 17.0945 14.7268 17.1202C14.5477 17.1561 14.3686 17.1921 14.1895 17.2282C14.1096 17.2442 14.1096 17.2442 14.0281 17.2605C13.8314 17.3003 13.6418 17.3413 13.4513 17.4068C13.3432 17.5688 13.3432 17.5688 13.2404 17.7727C13.2205 17.8103 13.2006 17.8479 13.1801 17.8866C13.1148 18.0101 13.0504 18.1341 12.986 18.2581C12.9408 18.3441 12.8955 18.43 12.8502 18.5159C12.737 18.7305 12.6244 18.9455 12.5121 19.1607C12.3633 19.4453 12.2131 19.7292 12.0632 20.0132C12.0335 20.0695 12.0038 20.1259 11.9733 20.1839C11.7471 20.6125 11.5149 21.0374 11.2811 21.4617C11.0219 21.9323 10.7692 22.4053 10.5259 22.8849C10.3583 23.2146 10.1857 23.5411 10.0103 23.8664C9.98451 23.9142 9.95873 23.962 9.93218 24.0112C9.80015 24.2554 9.66703 24.4988 9.53274 24.7417C9.50653 24.7892 9.48032 24.8368 9.45331 24.8858C9.40337 24.9762 9.3532 25.0666 9.30276 25.1567C9.17646 25.3676 9.17646 25.3676 9.13438 25.6053C9.09309 25.6053 9.05179 25.6053 9.00925 25.6053C9.0013 25.5228 8.99336 25.4402 8.98517 25.3551C8.94963 25.0264 8.89304 24.7042 8.83146 24.3797C8.81995 24.3181 8.80845 24.2565 8.7966 24.1931C8.75887 23.9914 8.72082 23.7898 8.68274 23.5882C8.65632 23.4475 8.6299 23.3068 8.60351 23.1661C8.54832 22.8723 8.49298 22.5785 8.43753 22.2847C8.36635 21.9075 8.29553 21.5303 8.22483 21.153C8.17044 20.863 8.11587 20.5729 8.06124 20.2829C8.03504 20.1438 8.0089 20.0046 7.98281 19.8654C7.94646 19.6716 7.90986 19.4778 7.8732 19.2841C7.8624 19.2263 7.85161 19.1685 7.84049 19.109C7.79191 18.8311 7.79191 18.8311 7.6954 18.5688C7.06452 18.6549 6.44127 18.7674 5.81701 18.8941C5.72428 18.9127 5.63155 18.9314 5.53882 18.95C5.29791 18.9984 5.05705 19.0471 4.8162 19.0958C4.56916 19.1457 4.32207 19.1954 4.07499 19.2451C3.59251 19.3422 3.11009 19.4396 2.6277 19.5371C2.66049 20.2226 2.80232 20.8889 2.93099 21.5603C2.95629 21.6937 2.98156 21.8272 3.0068 21.9607C3.06129 22.2485 3.11598 22.5362 3.17085 22.8239C3.25826 23.2823 3.34522 23.7409 3.43208 24.1994C3.4622 24.3584 3.49231 24.5173 3.52242 24.6763C3.53758 24.7563 3.55273 24.8363 3.56834 24.9187C3.61532 25.1666 3.66234 25.4144 3.70937 25.6623C3.93875 26.8716 4.16631 28.0814 4.39287 29.2913C4.41876 29.4295 4.44465 29.5678 4.47054 29.7061C4.622 30.5147 4.77337 31.3234 4.92463 32.1322C5.00331 32.5529 5.08209 32.9735 5.16091 33.3942C5.18989 33.5489 5.21883 33.7036 5.24773 33.8584C5.38936 34.6165 5.5311 35.3741 5.69335 36.1279C6.25676 36.0221 6.81972 35.914 7.38258 35.8051C7.47711 35.7869 7.47711 35.7869 7.57356 35.7682C8.00893 35.6841 8.44419 35.5993 8.87935 35.514C9.02867 35.4848 9.17802 35.4557 9.32739 35.4268C9.54011 35.3857 9.75272 35.3439 9.96531 35.302C10.0302 35.2896 10.095 35.2772 10.1618 35.2644C10.2215 35.2525 10.2812 35.2406 10.3428 35.2284C10.3951 35.2181 10.4473 35.2079 10.5012 35.1974C10.6528 35.1627 10.6528 35.1627 10.8236 35.0304C10.8156 34.9894 10.8077 34.9483 10.7994 34.906C10.7164 34.4779 10.6343 34.0495 10.5529 33.6211C10.5224 33.4613 10.4916 33.3015 10.4606 33.1419C10.4159 32.912 10.3722 32.6821 10.3287 32.452C10.3147 32.3809 10.3007 32.3098 10.2863 32.2366C10.2192 31.8769 10.1721 31.5793 10.2605 31.2217C10.37 31.0613 10.37 31.0613 10.5108 30.915C10.7158 30.6939 10.9111 30.4714 11.0973 30.2332C11.3087 29.9635 11.5243 29.6981 11.7425 29.4343C11.9661 29.164 12.1811 28.8903 12.3801 28.6001C12.4503 28.5103 12.4503 28.5103 12.5754 28.4458C12.5908 28.4823 12.6062 28.5188 12.6221 28.5565C12.714 28.7293 12.8243 28.8544 12.9547 28.9985C13.1534 29.2221 13.3448 29.4485 13.5295 29.6844C13.8558 30.1002 14.1967 30.5022 14.537 30.9056C14.6986 31.0976 14.859 31.2907 15.0193 31.4839C15.05 31.5209 15.0808 31.558 15.1124 31.5961C15.1743 31.6707 15.2361 31.7453 15.298 31.8198C15.3913 31.9324 15.4848 32.045 15.5783 32.1575C15.6093 32.1949 15.6404 32.2322 15.6723 32.2707C15.7345 32.3455 15.7966 32.4202 15.8588 32.495C16.023 32.6923 16.1864 32.8901 16.3491 33.0887C16.3831 33.1301 16.417 33.1715 16.4521 33.2141C16.5173 33.2934 16.5823 33.3729 16.6471 33.4526C16.7842 33.6191 16.9026 33.7464 17.08 33.8684C17.2603 33.8488 17.4294 33.8211 17.6065 33.7844C17.6603 33.7739 17.714 33.7635 17.7694 33.7527C17.9475 33.7177 18.1253 33.6816 18.3032 33.6455C18.4269 33.621 18.5506 33.5965 18.6742 33.5721C18.9338 33.5207 19.1932 33.4687 19.4526 33.4164C19.7846 33.3494 20.1168 33.2833 20.4491 33.2176C20.7047 33.167 20.9602 33.1161 21.2157 33.065C21.3382 33.0406 21.4606 33.0162 21.5831 32.9918C21.7546 32.9577 21.926 32.9231 22.0975 32.8885C22.1731 32.8734 22.1731 32.8734 22.2503 32.8581C22.516 32.804 22.7682 32.7373 23.0236 32.6419C22.7492 32.3061 22.4643 31.984 22.1712 31.6655C21.8671 31.3336 21.5637 31.0011 21.264 30.6649C20.9955 30.3637 20.7255 30.064 20.4546 29.7651C20.1376 29.4153 19.8232 29.0633 19.51 28.7098C19.2704 28.4401 19.0279 28.1731 18.7856 27.9059C18.5192 27.6117 18.2542 27.3163 17.9898 27.0202C17.7489 26.7506 17.5065 26.4824 17.2638 26.2146C16.9452 25.8629 16.6287 25.5093 16.3139 25.154C16.0075 24.8083 15.6989 24.4646 15.3908 24.1206C15.6409 23.5619 15.9383 23.0372 16.2434 22.5093C16.5145 22.04 16.7809 21.5681 17.0448 21.0945C17.4915 20.2938 17.9421 19.4955 18.3939 18.6979C18.9868 17.6524 18.9868 17.6524 19.5748 16.6039C19.6133 16.5347 19.6519 16.4656 19.6916 16.3943C19.7753 16.2637 19.7753 16.2637 19.7703 16.1802C19.4675 16.1637 19.1862 16.2259 18.8908 16.2859Z" fill="#0272BD"/>
<path d="M42.356 16.6967C43.9457 16.6967 45.5355 16.6967 47.1734 16.6967C47.1941 19.8709 47.2147 23.0451 47.236 26.3155C47.6646 25.8282 47.6646 25.8282 48.0728 25.3269C48.2808 25.0618 48.4921 24.8 48.7063 24.5402C48.9173 24.284 49.1262 24.0263 49.3319 23.7655C49.6205 23.3999 49.9155 23.0403 50.2114 22.6811C50.3051 22.567 50.3985 22.4527 50.4918 22.3382C50.5228 22.3002 50.5538 22.2622 50.5858 22.2231C50.6451 22.1504 50.7044 22.0776 50.7636 22.0048C50.8384 21.9133 50.9141 21.8226 50.9899 21.732C51.0129 21.6969 51.036 21.6619 51.0598 21.6257C51.254 21.4816 51.4739 21.5132 51.7043 21.5164C51.7848 21.5163 51.7848 21.5163 51.8671 21.5163C52.0448 21.5164 52.2225 21.5179 52.4002 21.5194C52.5234 21.5198 52.6466 21.5201 52.7697 21.5203C53.0941 21.521 53.4183 21.5229 53.7426 21.525C54.0735 21.527 54.4044 21.5279 54.7353 21.5289C55.3846 21.531 56.0339 21.5343 56.6832 21.5383C56.5839 21.7532 56.4725 21.9073 56.3156 22.083C56.2653 22.1397 56.215 22.1964 56.1631 22.2548C56.1076 22.3166 56.0522 22.3784 55.995 22.4421C55.935 22.5093 55.8751 22.5764 55.8151 22.6436C55.6884 22.7855 55.5616 22.9272 55.4346 23.0688C55.2546 23.2696 55.0753 23.471 54.8962 23.6727C54.8681 23.7044 54.8399 23.7361 54.8109 23.7688C54.7543 23.8326 54.6977 23.8964 54.641 23.9602C54.4981 24.1213 54.355 24.2823 54.2119 24.4433C54.1546 24.5079 54.0972 24.5725 54.0399 24.637C53.6958 25.0243 53.6958 25.0243 53.6096 25.1213C53.5526 25.1855 53.4955 25.2497 53.4385 25.314C53.2907 25.4804 53.1427 25.6467 52.9944 25.8126C52.9638 25.8468 52.9333 25.881 52.9019 25.9163C52.8174 26.0109 52.7328 26.1054 52.6483 26.2C52.5965 26.2594 52.5447 26.3188 52.4914 26.38C52.4611 26.4129 52.4309 26.4458 52.3997 26.4797C52.2988 26.5905 52.2988 26.5905 52.1786 26.7673C52.2011 26.9601 52.2758 27.1028 52.3736 27.2664C52.4009 27.3123 52.4282 27.3582 52.4563 27.4055C52.4859 27.4546 52.5156 27.5036 52.5461 27.5541C52.577 27.6057 52.6079 27.6573 52.6398 27.7105C52.8988 28.1413 53.1651 28.5672 53.4333 28.992C53.9502 29.8119 54.4542 30.6405 54.9601 31.4677C55.2014 31.8622 55.4435 32.2563 55.6861 32.65C55.7225 32.7092 55.759 32.7684 55.7966 32.8294C55.9724 33.1145 56.1492 33.3987 56.3286 33.6813C56.3608 33.7322 56.393 33.783 56.4262 33.8354C56.4866 33.9305 56.5473 34.0254 56.6082 34.1201C56.8083 34.4352 56.8083 34.4352 56.8083 34.5786C56.115 34.6146 55.4219 34.6421 54.7279 34.6588C54.4055 34.6669 54.0836 34.6778 53.7616 34.6954C51.6854 34.8064 51.6854 34.8064 51.1593 34.432C50.8397 34.0763 50.6585 33.6779 50.5006 33.2253C50.3857 32.9201 50.2179 32.6544 50.0475 32.3796C49.9874 32.2765 49.9277 32.1732 49.8683 32.0697C49.6449 31.6834 49.418 31.2992 49.1911 30.915C49.1523 30.8492 49.1134 30.7834 49.0733 30.7155C48.9823 30.5615 48.8912 30.4074 48.8001 30.2533C48.5492 30.4743 48.2991 30.696 48.0532 30.9231C48.0049 30.9675 47.9566 31.012 47.9069 31.0578C47.8506 31.1118 47.7944 31.1659 47.7365 31.2217C47.6939 31.2489 47.6513 31.2762 47.6074 31.3043C47.3963 31.4637 47.2615 31.6096 47.2075 31.8815C47.1613 32.3169 47.1695 32.7532 47.1734 33.1906C47.1734 33.6486 47.1734 34.1067 47.1734 34.5786C45.5837 34.5786 43.9939 34.5786 42.356 34.5786C42.356 28.6775 42.356 22.7765 42.356 16.6967Z" fill="#0372BD"/>
<path d="M83.273 16.6967C84.8628 16.6967 86.4525 16.6967 88.0904 16.6967C88.1111 19.8709 88.1317 23.0451 88.153 26.3155C88.7798 25.5711 88.7798 25.5711 89.3891 24.814C89.5484 24.6131 89.7106 24.4151 89.8735 24.2174C90.0834 23.9626 90.291 23.7063 90.4953 23.4468C90.7411 23.1349 90.9936 22.8293 91.2492 22.5259C91.2786 22.4908 91.3079 22.4558 91.3382 22.4197C91.3681 22.3855 91.3981 22.3512 91.4289 22.316C91.5371 22.1849 91.5372 22.1849 91.6153 22.0219C91.7529 21.7843 91.8847 21.5818 92.1542 21.5023C92.5336 21.4453 92.9169 21.4644 93.2989 21.4753C93.423 21.4765 93.5472 21.4774 93.6713 21.4781C93.9968 21.4805 94.3221 21.4869 94.6476 21.494C94.9801 21.5006 95.3127 21.5036 95.6453 21.5068C96.297 21.5137 96.9486 21.5247 97.6002 21.5383C97.4847 21.7947 97.3221 21.9806 97.1349 22.1839C97.0666 22.2591 96.9983 22.3343 96.9301 22.4096C96.8783 22.4664 96.8783 22.4664 96.8256 22.5243C96.6745 22.6907 96.5253 22.8588 96.3763 23.0272C96.3195 23.0911 96.2627 23.1551 96.206 23.2191C96.178 23.2506 96.15 23.2822 96.1211 23.3147C95.9781 23.4758 95.8351 23.6368 95.692 23.7978C95.6347 23.8623 95.5773 23.9269 95.52 23.9915C95.1758 24.3788 95.1758 24.3788 95.0898 24.4757C95.0325 24.5401 94.9753 24.6045 94.918 24.669C94.7732 24.8321 94.6283 24.9951 94.4832 25.158C94.0042 25.6959 94.0042 25.6959 93.5306 26.239C93.4557 26.3255 93.3796 26.411 93.3019 26.4947C93.2022 26.6012 93.2022 26.6012 93.0956 26.7673C93.1106 27.0662 93.2621 27.273 93.424 27.5097C93.6827 27.8986 93.9282 28.2938 94.167 28.6959C94.5941 29.4131 95.0341 30.1213 95.4748 30.8296C96.1636 31.9377 96.8501 33.0478 97.522 34.167C97.5617 34.2331 97.6014 34.2992 97.6423 34.3672C97.7253 34.514 97.7253 34.514 97.7253 34.5786C97.0265 34.6026 96.3278 34.6209 95.6287 34.6321C95.304 34.6375 94.9795 34.6447 94.655 34.6565C94.3414 34.6678 94.028 34.6739 93.7143 34.6766C93.5949 34.6785 93.4756 34.6822 93.3564 34.6878C92.4473 34.7287 92.4473 34.7287 92.1715 34.4778C91.9752 34.2307 91.8383 33.9592 91.7119 33.6688C91.6376 33.5033 91.545 33.3529 91.4484 33.2005C91.3874 33.099 91.3265 32.9976 91.2656 32.8961C91.2156 32.8128 91.2156 32.8128 91.1645 32.7278C90.9775 32.4159 90.7918 32.1031 90.6077 31.7893C90.5687 31.7229 90.5297 31.6564 90.4895 31.588C90.4145 31.4601 90.3396 31.3321 90.265 31.204C90.0732 30.8768 89.8747 30.561 89.6546 30.2533C89.5331 30.3675 89.412 30.4818 89.2909 30.5963C89.2579 30.6273 89.2248 30.6583 89.1908 30.6902C89.1174 30.7598 89.0452 30.8306 88.974 30.9025C88.8412 31.028 88.8412 31.028 88.6622 31.162C88.3434 31.4267 88.1498 31.6315 88.0921 32.0613C88.0636 32.4428 88.0706 32.8202 88.0787 33.2027C88.0826 33.6567 88.0865 34.1108 88.0904 34.5786C86.5007 34.5786 84.9109 34.5786 83.273 34.5786C83.273 28.6775 83.273 22.7765 83.273 16.6967Z" fill="#0372BD"/>
<path d="M104.381 21.264C104.428 21.2639 104.475 21.2639 104.524 21.2638C105.255 21.2649 105.959 21.2959 106.672 21.4738C106.717 21.4845 106.761 21.4953 106.807 21.5063C107.499 21.6783 108.116 21.9568 108.737 22.313C108.798 22.3474 108.86 22.3817 108.924 22.4172C110.13 23.1434 110.919 24.423 111.285 25.7902C111.791 27.8192 111.668 30.0764 110.651 31.9154C109.824 33.3431 108.483 34.2169 106.946 34.6217C104.718 35.1568 102.115 35.0878 100.091 33.8785C99.6613 33.5937 99.2782 33.2695 98.9141 32.9001C98.8703 32.8558 98.8266 32.8116 98.7816 32.766C97.5661 31.4483 97.2425 29.5368 97.2757 27.7811C97.3306 26.0582 97.829 24.3326 99.0392 23.0877C100.526 21.6952 102.428 21.2656 104.381 21.264ZM102.619 25.3519C102.197 25.964 102.096 26.6191 102.092 27.3546C102.092 27.4109 102.091 27.4671 102.091 27.525C102.09 27.6437 102.09 27.7625 102.09 27.8813C102.089 28.0604 102.087 28.2394 102.085 28.4184C102.08 29.3691 102.121 30.2055 102.758 30.9473C103.324 31.4605 103.95 31.5794 104.69 31.5308C105.335 31.4476 105.855 31.251 106.268 30.7158C106.759 29.967 106.755 29.1316 106.751 28.2607C106.75 28.0911 106.751 27.9216 106.752 27.7521C106.753 26.7939 106.7 25.9308 106.032 25.1999C105.577 24.7437 105.004 24.6295 104.385 24.6128C103.711 24.6327 103.072 24.8084 102.619 25.3519Z" fill="#0272BD"/>
<path d="M68.4971 22.7679C68.5419 22.8095 68.5868 22.8511 68.633 22.894C68.6881 22.9449 68.7433 22.9959 68.8001 23.0483C70.0547 24.2713 70.5849 25.9689 70.6531 27.7183C70.694 29.5625 70.3159 31.4462 69.0709 32.8356C69.0124 32.9037 69.0124 32.9037 68.9526 32.9732C67.9899 34.0376 66.6687 34.5085 65.3171 34.7722C65.2744 34.7807 65.2317 34.7892 65.1878 34.7979C63.09 35.1933 60.6539 34.8845 58.8517 33.6622C57.5593 32.697 56.7767 31.3582 56.4955 29.7369C56.1893 27.6835 56.3809 25.5536 57.5474 23.8099C58.4953 22.5432 59.7586 21.8473 61.2504 21.4738C61.3143 21.4577 61.3143 21.4577 61.3796 21.4412C63.6534 20.9009 66.6525 21.1795 68.4971 22.7679ZM61.6883 25.4117C61.2446 25.9907 61.1798 26.7257 61.1729 27.4409C61.1724 27.4922 61.1719 27.5436 61.1714 27.5965C61.1705 27.705 61.1699 27.8134 61.1694 27.9219C61.1686 28.0307 61.1674 28.1396 61.1655 28.2484C61.1511 29.0945 61.1361 30.1225 61.7118 30.7952C61.7453 30.8295 61.7789 30.8637 61.8135 30.8989C61.847 30.9351 61.8806 30.9713 61.9151 31.0086C62.3715 31.4588 62.9522 31.5437 63.5653 31.5444C64.1043 31.5109 64.5656 31.4296 65.0042 31.0926C65.0639 31.047 65.0639 31.047 65.1247 31.0005C65.5467 30.6248 65.7332 30.0354 65.8176 29.4787C65.828 29.2749 65.8293 29.0712 65.8303 28.8672C65.8306 28.8078 65.831 28.7485 65.8314 28.6874C65.832 28.5619 65.8324 28.4364 65.8326 28.3109C65.8332 28.1212 65.8352 27.9315 65.8371 27.7418C65.8421 26.8478 65.8151 26.0151 65.2545 25.2826C64.7173 24.7398 64.0588 24.6154 63.3297 24.6229C62.6498 24.6703 62.1482 24.8872 61.6883 25.4117Z" fill="#0272BD"/>
<path d="M38.5396 22.8295C38.5878 22.8677 38.636 22.906 38.6857 22.9454C39.6645 23.7746 40.226 25.0608 40.4791 26.3155C40.5001 26.4144 40.5001 26.4144 40.5216 26.5154C40.8489 28.3824 40.6036 30.5071 39.6032 32.1254C39.4479 32.3526 39.2818 32.5635 39.1026 32.771C39.0618 32.8193 39.0209 32.8675 38.9787 32.9173C37.7419 34.2869 35.8663 34.8336 34.1029 34.9092C31.8695 34.9806 29.8014 34.5821 28.0843 33.0396C27.0015 31.9867 26.4322 30.3432 26.384 28.8336C26.379 28.5967 26.3781 28.3599 26.3786 28.123C26.3787 28.0732 26.3787 28.0234 26.3787 27.9722C26.3808 27.1801 26.4337 26.4335 26.6524 25.6699C26.6743 25.5893 26.6962 25.5088 26.7188 25.4258C27.0115 24.4778 27.5379 23.7159 28.2165 23.0231C28.256 22.9809 28.2955 22.9387 28.3362 22.8953C30.8188 20.4296 35.9881 20.7456 38.5396 22.8295ZM31.6731 25.3996C31.153 26.1599 31.1347 27.0323 31.1372 27.9316C31.1374 28.0778 31.136 28.2238 31.1344 28.37C31.1307 29.2499 31.1717 30.2092 31.767 30.8961C32.2656 31.3888 32.8546 31.5523 33.5344 31.5444C34.1444 31.4965 34.7815 31.3675 35.2237 30.8989C35.7984 30.0875 35.8187 29.2646 35.8147 28.2946C35.8141 28.0997 35.8159 27.9049 35.8179 27.71C35.8211 26.8095 35.7794 25.9229 35.1611 25.218C34.6311 24.732 33.9953 24.5984 33.3013 24.6188C32.6059 24.6805 32.157 24.889 31.6731 25.3996Z" fill="#0272BD"/>
<path d="M81.5212 21.5383C81.5227 22.0759 81.5238 22.6135 81.5244 23.1511C81.5248 23.4007 81.5252 23.6502 81.5259 23.8998C81.5266 24.1405 81.527 24.3812 81.5271 24.6219C81.5273 24.7139 81.5275 24.8059 81.5278 24.8979C81.5283 25.0264 81.5283 25.1548 81.5283 25.2833C81.5284 25.3566 81.5286 25.4298 81.5287 25.5053C81.5212 25.6699 81.5212 25.6699 81.4586 25.7345C81.3014 25.7416 81.1457 25.7449 80.9884 25.7458C80.8897 25.7473 80.791 25.7489 80.6922 25.7505C80.537 25.7527 80.3818 25.7546 80.2265 25.7555C79.4413 25.7608 78.6332 25.7821 77.9995 26.3311C77.654 26.6973 77.4504 27.1142 77.3294 27.6066C77.3186 27.6493 77.3079 27.6921 77.2968 27.7361C77.2534 28.0161 77.2557 28.2932 77.254 28.5764C77.2534 28.6413 77.2527 28.7062 77.2521 28.773C77.2501 28.9871 77.2486 29.2013 77.247 29.4154C77.2458 29.564 77.2444 29.7126 77.2431 29.8612C77.2396 30.2521 77.2366 30.643 77.2335 31.0338C77.2298 31.503 77.2257 31.9721 77.2216 32.4412C77.2155 33.1537 77.2099 33.8661 77.2043 34.5786C75.6145 34.5786 74.0248 34.5786 72.3868 34.5786C72.3868 30.2753 72.3868 25.972 72.3868 21.5383C73.6669 21.5383 74.947 21.5383 76.2658 21.5383C76.375 21.7636 76.4188 21.9048 76.4579 22.1466C76.4742 22.2458 76.4742 22.2458 76.4909 22.3471C76.5072 22.45 76.5072 22.45 76.5239 22.5551C76.5353 22.6247 76.5466 22.6944 76.5583 22.7662C76.5863 22.9378 76.6139 23.1096 76.6412 23.2813C76.6663 23.2368 76.6914 23.1923 76.7172 23.1464C77.2547 22.2296 77.9482 21.6335 78.9561 21.3447C79.8511 21.1505 80.6745 21.1548 81.5212 21.5383Z" fill="#0373BD"/>
<path d="M34.0203 3.54425C34.3572 3.81469 34.5171 4.12766 34.598 4.56024C34.6351 5.04216 34.5554 5.43166 34.2493 5.80849C34.0252 6.07088 33.7669 6.2671 33.4914 6.46867C33.385 6.548 33.2786 6.62735 33.1722 6.70672C33.1181 6.74683 33.064 6.78694 33.0082 6.82826C32.7531 7.01809 32.5007 7.21159 32.248 7.40472C31.8613 7.69919 31.4728 7.99074 31.0827 8.28026C30.7307 8.54161 30.3812 8.8059 30.0347 9.0751C29.1265 9.78085 28.2098 10.4727 27.278 11.1449C27.278 10.9308 27.3056 10.8842 27.4168 10.7115C27.4475 10.6633 27.4782 10.6151 27.5099 10.5655C27.544 10.5129 27.5782 10.4604 27.6133 10.4063C27.6488 10.3509 27.6843 10.2955 27.7209 10.2384C27.8388 10.0548 27.9572 9.87156 28.0757 9.68837C28.158 9.56044 28.2402 9.43249 28.3225 9.30451C28.5363 8.97195 28.7506 8.63977 28.9652 8.30771C29.0882 8.11719 29.2112 7.9266 29.3341 7.73598C29.9462 6.78678 29.9462 6.78678 30.24 6.33354C30.5485 5.85767 30.8566 5.38165 31.1587 4.90143C31.2048 4.82861 31.2509 4.75579 31.297 4.68299C31.3768 4.55661 31.456 4.42985 31.5345 4.30259C31.8616 3.7865 32.2194 3.37813 32.8147 3.22904C33.2878 3.15517 33.6219 3.2768 34.0203 3.54425Z" fill="#F79624"/>
<path d="M28.0601 0.150297C28.4143 0.369934 28.6905 0.673752 28.8421 1.07425C28.9308 1.51323 28.8967 1.8704 28.7646 2.29248C28.748 2.34902 28.7314 2.40555 28.7142 2.46381C28.6757 2.59382 28.6366 2.72364 28.597 2.85332C28.5217 3.10029 28.4479 3.34772 28.3743 3.59522C28.2098 4.14648 28.0433 4.69706 27.8766 5.24758C27.7526 5.6569 27.6289 6.0663 27.5052 6.47572C27.4593 6.6276 27.4133 6.77946 27.3673 6.93131C27.2072 7.46049 27.0495 7.99032 26.8951 8.5213C26.8634 8.63011 26.8316 8.73892 26.7999 8.84772C26.7394 9.05471 26.6797 9.26188 26.6202 9.46916C26.5931 9.56211 26.566 9.65506 26.5389 9.748C26.5154 9.82943 26.4919 9.91087 26.4678 9.99477C26.4021 10.1766 26.4021 10.1766 26.277 10.2411C26.1632 8.63828 26.0856 7.03372 26.0088 5.42862C25.991 5.05777 25.973 4.68692 25.9549 4.31608C25.9409 4.02755 25.9269 3.73902 25.913 3.45048C25.9064 3.3136 25.8998 3.17673 25.8931 3.03986C25.8839 2.84972 25.8748 2.65957 25.8658 2.46941C25.8617 2.38621 25.8617 2.38621 25.8575 2.30133C25.7988 1.04981 25.7988 1.04981 26.2379 0.501317C26.7657 0.0604704 27.4016 -0.171895 28.0601 0.150297Z" fill="#F15E2A"/>
<path d="M37.2741 9.10889C37.6499 9.37692 37.8386 9.68522 37.9511 10.1413C38.0223 10.6019 37.9222 11.0211 37.6637 11.4031C37.3618 11.7448 36.9911 11.9844 36.5364 12.0099C36.443 12.0116 36.3497 12.0122 36.2563 12.012C36.2048 12.0127 36.1533 12.0134 36.1002 12.014C35.9299 12.016 35.7596 12.0166 35.5893 12.0172C35.4687 12.0183 35.3481 12.0194 35.2276 12.0207C34.9065 12.0238 34.5855 12.0257 34.2645 12.0274C33.935 12.0293 33.6054 12.0322 33.2759 12.0351C31.5478 12.0492 29.8195 12.0586 28.0913 12.0487C28.0913 12.0061 28.0913 11.9635 28.0913 11.9196C28.1606 11.8937 28.2299 11.8678 28.3014 11.8411C29.5479 11.3754 30.7937 10.908 32.0358 10.4298C32.2013 10.3661 32.3669 10.3026 32.5325 10.2391C33.0457 10.0423 33.5584 9.84474 34.0701 9.64383C34.3044 9.55206 34.539 9.46122 34.7737 9.37055C34.8844 9.32751 34.995 9.28405 35.1054 9.24016C36.5317 8.67361 36.5317 8.67361 37.2741 9.10889Z" fill="#F15E2A"/>
<path d="M99.4771 22.7003C99.5184 22.7216 99.5597 22.7429 99.6023 22.7649C99.3132 23.0631 99.0242 23.3614 98.7264 23.6687C98.6851 23.6474 98.6438 23.6261 98.6012 23.6041C98.8721 23.2695 99.1497 22.9762 99.4771 22.7003Z" fill="#3A91CA"/>
</g>
</g>
</svg>
