<svg width="146" height="48" viewBox="0 0 146 48" fill="none" xmlns="http://www.w3.org/2000/svg">
<g id="Logo-white">
<g id="Vector">
<path d="M0 15.2938C10.7754 15.2938 21.5508 15.2938 32.6527 15.2938C32.6527 26.0868 32.6527 36.8799 32.6527 48C21.8773 48 11.1019 48 0 48C0 37.2069 0 26.4139 0 15.2938ZM25.2893 20.4262C25.2223 20.4391 25.1552 20.452 25.086 20.4653C25.0113 20.4798 24.9365 20.4943 24.8618 20.5088C24.7834 20.5239 24.705 20.5391 24.6266 20.5542C24.4132 20.5953 24.1999 20.6366 23.9866 20.6779C23.8087 20.7124 23.6308 20.7468 23.4529 20.7811C23.0333 20.8622 22.6137 20.9434 22.1941 21.0247C21.7609 21.1086 21.3276 21.1923 20.8943 21.276C20.5227 21.3478 20.1511 21.4196 19.7794 21.4916C19.5573 21.5345 19.3352 21.5775 19.1131 21.6204C18.9042 21.6607 18.6954 21.7011 18.4866 21.7417C18.4098 21.7565 18.3331 21.7714 18.2564 21.7862C18.1518 21.8063 18.0472 21.8266 17.9426 21.847C17.884 21.8583 17.8254 21.8696 17.7651 21.8813C17.528 21.9254 17.528 21.9254 17.3695 22.0951C17.3391 22.1516 17.3087 22.2082 17.2773 22.2664C17.2426 22.3301 17.2079 22.3939 17.1722 22.4596C17.1346 22.5299 17.097 22.6002 17.0594 22.6706C17.0201 22.7433 16.9807 22.8159 16.9412 22.8885C16.8592 23.0396 16.7774 23.1907 16.6958 23.342C16.5285 23.6518 16.3582 23.96 16.1879 24.2682C16.0965 24.4339 16.0053 24.5996 15.914 24.7654C15.784 25.0014 15.6539 25.2374 15.5237 25.4733C15.1276 26.1908 14.7335 26.9093 14.3444 27.6308C14.0821 28.1168 13.8145 28.5998 13.5457 29.0822C13.1045 29.8744 12.6651 30.6674 12.2358 31.4661C12.2084 31.517 12.1811 31.5678 12.1529 31.6202C12.1148 31.6911 12.1148 31.6911 12.0758 31.7635C12.0104 31.8831 11.9427 32.0008 11.8737 32.1183C11.7747 32.2662 11.7747 32.2662 11.7836 32.3915C11.7473 32.3915 11.7109 32.3915 11.6735 32.3915C11.6713 32.3612 11.6691 32.3309 11.6668 32.2996C11.6299 31.8671 11.5494 31.4452 11.4665 31.0196C11.4508 30.9382 11.4351 30.8568 11.4195 30.7754C11.3773 30.5559 11.3348 30.3365 11.2922 30.1171C11.2476 29.887 11.2033 29.657 11.1589 29.4269C11.0845 29.0411 11.0098 28.6554 10.9351 28.2697C10.8486 27.8236 10.7624 27.3774 10.6763 26.9311C10.5935 26.5014 10.5105 26.0718 10.4274 25.6421C10.392 25.4594 10.3567 25.2766 10.3214 25.0938C10.28 24.879 10.2384 24.6642 10.1967 24.4495C10.1814 24.3706 10.1662 24.2916 10.151 24.2127C10.1303 24.1053 10.1094 23.9979 10.0885 23.8905C10.0768 23.8303 10.0651 23.7701 10.0531 23.7081C10.0279 23.5684 10.0279 23.5684 9.96652 23.4565C9.57349 23.4889 9.19105 23.5478 8.80416 23.6234C8.74572 23.6346 8.68727 23.6458 8.62706 23.6574C8.43568 23.6942 8.24437 23.7313 8.05306 23.7685C7.91955 23.7943 7.78603 23.82 7.65251 23.8458C7.37368 23.8996 7.09487 23.9536 6.81609 24.0077C6.45815 24.0771 6.10015 24.1462 5.74213 24.2152C5.4669 24.2683 5.19171 24.3215 4.91653 24.3747C4.78446 24.4003 4.65238 24.4258 4.52029 24.4513C4.33639 24.4868 4.15252 24.5224 3.96867 24.5582C3.91381 24.5688 3.85895 24.5793 3.80242 24.5902C3.75256 24.5999 3.70271 24.6096 3.65134 24.6197C3.6079 24.6281 3.56445 24.6365 3.51969 24.6452C3.41015 24.6665 3.41015 24.6665 3.30382 24.7251C3.49483 25.8194 3.70007 26.9105 3.91222 28.0009C3.95557 28.2239 3.99878 28.4469 4.04201 28.6699C4.11627 29.0529 4.19062 29.436 4.26501 29.819C4.38245 30.4236 4.49973 31.0283 4.61696 31.6329C4.62682 31.6838 4.63668 31.7347 4.64684 31.7871C4.69699 32.0457 4.74713 32.3044 4.79727 32.563C4.83777 32.7719 4.87827 32.9808 4.91878 33.1897C5.20829 34.6827 5.49706 36.1759 5.78491 37.6692C5.79809 37.7376 5.79809 37.7376 5.81154 37.8073C5.97948 38.6786 6.1473 39.5499 6.31508 40.4212C6.39101 40.8155 6.46695 41.2098 6.54291 41.6041C6.5573 41.6788 6.5717 41.7535 6.58609 41.8282C6.83016 43.0953 7.07579 44.362 7.32346 45.6284C8.00495 45.5337 8.67885 45.3986 9.35415 45.2679C9.48099 45.2435 9.60783 45.2191 9.73467 45.1946C9.99909 45.1437 10.2635 45.0926 10.5279 45.0415C10.8669 44.976 11.2059 44.9106 11.5449 44.8453C11.8062 44.7949 12.0675 44.7445 12.3287 44.6941C12.4538 44.67 12.5789 44.6459 12.704 44.6217C12.8782 44.5882 13.0524 44.5545 13.2266 44.5208C13.2782 44.5108 13.3298 44.5009 13.383 44.4906C13.4542 44.4768 13.4542 44.4768 13.5268 44.4628C13.5679 44.4548 13.609 44.4469 13.6514 44.4387C13.7639 44.4154 13.8749 44.3886 13.9862 44.3598C13.9519 43.9067 13.8705 43.4677 13.7808 43.023C13.7546 42.893 13.7288 42.7628 13.7031 42.6327C13.6301 42.2632 13.5565 41.8937 13.4824 41.5244C13.4369 41.2974 13.3919 41.0704 13.3472 40.8433C13.3302 40.7572 13.3129 40.671 13.2955 40.585C13.2711 40.4648 13.2474 40.3446 13.2238 40.2243C13.2102 40.156 13.1965 40.0878 13.1825 40.0174C13.1493 39.7489 13.1745 39.6165 13.3357 39.399C13.3868 39.3401 13.4385 39.2817 13.4906 39.2236C13.5463 39.1598 13.6019 39.0958 13.6575 39.0319C13.6853 39.0002 13.713 38.9686 13.7416 38.936C13.8537 38.8068 13.9613 38.6741 14.0688 38.5411C14.2751 38.2872 14.4856 38.037 14.6973 37.7875C14.8569 37.5991 15.0143 37.4091 15.17 37.2174C15.3574 36.9871 15.5467 36.7586 15.7379 36.5314C15.763 36.5014 15.7881 36.4714 15.814 36.4405C15.9508 36.2784 16.0915 36.124 16.2438 35.9765C16.658 36.4606 16.658 36.4606 17.0723 36.9447C17.0992 36.9761 17.1261 37.0075 17.1538 37.0399C17.2083 37.1035 17.2628 37.1672 17.3172 37.2309C17.4556 37.3926 17.5939 37.5542 17.7324 37.7157C18.0241 38.0561 18.3147 38.3974 18.6037 38.7401C18.8705 39.0563 19.1397 39.3705 19.409 39.6847C19.5745 39.8778 19.7398 40.071 19.9051 40.2643C20.0446 40.4274 20.1843 40.5904 20.3243 40.7531C20.5771 41.0472 20.8282 41.3419 21.0722 41.6435C21.2712 41.8893 21.479 42.1252 21.6927 42.3584C21.8052 42.4846 21.8052 42.4846 21.8953 42.6419C22.0095 42.7714 22.0095 42.7714 22.1336 42.7645C22.5214 42.7168 22.9037 42.6491 23.2872 42.5741C23.3562 42.5609 23.4252 42.5476 23.4963 42.5339C23.6839 42.4978 23.8715 42.4613 24.059 42.4248C24.216 42.3943 24.373 42.3639 24.5299 42.3336C24.9001 42.2619 25.2703 42.1901 25.6404 42.118C26.0218 42.0438 26.4034 41.9699 26.785 41.8963C27.1133 41.8329 27.4417 41.7693 27.77 41.7055C27.9657 41.6674 28.1615 41.6294 28.3574 41.5917C28.5753 41.5497 28.7931 41.5072 29.011 41.4646C29.0757 41.4522 29.1405 41.4398 29.2072 41.427C29.2665 41.4153 29.3258 41.4036 29.3869 41.3916C29.4641 41.3766 29.464 41.3766 29.5428 41.3613C29.6745 41.3276 29.7811 41.282 29.8996 41.2161C29.8777 41.1928 29.8559 41.1695 29.8333 41.1456C29.4271 40.7128 29.0223 40.2789 28.6223 39.8402C28.4449 39.6461 28.2654 39.4538 28.0859 39.2616C27.7074 38.8561 27.3314 38.4484 26.9559 38.0401C26.6351 37.6913 26.3133 37.3433 25.99 36.9968C25.6127 36.5924 25.2378 36.1859 24.8635 35.7788C24.5427 35.43 24.2209 35.082 23.8976 34.7355C23.5203 34.3311 23.1454 33.9246 22.7711 33.5175C22.4502 33.1687 22.1285 32.8207 21.8052 32.4742C21.5097 32.1575 21.2154 31.8397 20.9222 31.5208C20.8074 31.396 20.6922 31.2715 20.5768 31.1473C20.5468 31.1149 20.5168 31.0826 20.486 31.0493C20.4287 30.9875 20.3714 30.9259 20.314 30.8644C20.1777 30.7171 20.0518 30.5676 19.933 30.4059C20.3244 29.7075 20.72 29.0118 21.1241 28.3206C21.3599 27.9171 21.5932 27.5123 21.8258 27.107C22.1076 26.6163 22.3936 26.1284 22.6828 25.642C23.0232 25.0691 23.3558 24.4923 23.685 23.9129C23.9198 23.4997 24.1569 23.0879 24.3966 22.6775C24.658 22.2299 24.9184 21.7819 25.1774 21.3329C25.2317 21.2387 25.2861 21.1446 25.3405 21.0504C25.3734 20.9933 25.4063 20.9361 25.4403 20.8772C25.4694 20.8267 25.4985 20.7762 25.5285 20.7242C25.5943 20.6069 25.656 20.4889 25.7147 20.3679C25.5679 20.3679 25.4336 20.3983 25.2893 20.4262Z" fill="white"/>
<path d="M108.255 21.0849C110.308 21.0849 112.362 21.0849 114.477 21.0849C114.495 25.1437 114.514 29.2025 114.532 33.3842C114.696 33.184 114.859 32.9838 115.028 32.7775C115.129 32.6577 115.229 32.5382 115.331 32.419C115.516 32.2014 115.698 31.9824 115.878 31.7606C116.096 31.4924 116.32 31.2301 116.545 30.9681C116.754 30.7247 116.958 30.4774 117.16 30.2282C117.301 30.056 117.444 29.8861 117.588 29.7165C117.774 29.4976 117.958 29.2775 118.139 29.0546C118.393 28.7425 118.652 28.4354 118.913 28.1286C118.996 28.0296 119.08 27.9305 119.164 27.8314C119.205 27.7819 119.205 27.7819 119.248 27.7315C119.302 27.6679 119.355 27.6043 119.409 27.5406C119.592 27.3235 119.592 27.3235 119.653 27.2621C119.747 27.2568 119.842 27.2554 119.936 27.2555C119.997 27.2554 120.058 27.2554 120.121 27.2553C120.189 27.2555 120.257 27.2557 120.327 27.2559C120.398 27.2559 120.469 27.2559 120.542 27.2559C120.737 27.2558 120.932 27.2562 121.127 27.2566C121.33 27.2569 121.534 27.2569 121.737 27.257C122.123 27.2572 122.509 27.2576 122.894 27.2582C123.334 27.2588 123.773 27.2591 124.212 27.2594C125.115 27.2599 126.018 27.2609 126.922 27.2621C126.87 27.3327 126.817 27.4031 126.765 27.4735C126.736 27.5127 126.707 27.552 126.677 27.5924C126.568 27.7332 126.448 27.8559 126.319 27.9791C126.127 28.1679 125.946 28.3597 125.771 28.5645C125.61 28.7476 125.443 28.925 125.277 29.1029C125.018 29.3793 124.762 29.6575 124.51 29.9399C124.295 30.1792 124.078 30.4155 123.861 30.6523C123.734 30.7907 123.607 30.9292 123.48 31.0678C123.43 31.1229 123.379 31.1781 123.329 31.2332C123.291 31.2742 123.291 31.2742 123.253 31.316C123.026 31.5641 123.026 31.5641 122.95 31.6469C122.9 31.702 122.849 31.757 122.799 31.8121C122.672 31.9514 122.544 32.0907 122.416 32.2299C122.14 32.5312 121.864 32.833 121.593 33.1386C121.506 33.2348 121.417 33.3294 121.328 33.423C121.282 33.4716 121.236 33.5203 121.188 33.5704C121.146 33.614 121.104 33.6577 121.06 33.7027C120.961 33.8153 120.961 33.8153 120.99 33.9306C121.031 34.0492 121.081 34.145 121.146 34.2518C121.17 34.2911 121.194 34.3303 121.219 34.3707C121.258 34.4336 121.258 34.4336 121.298 34.4976C121.325 34.5416 121.353 34.5856 121.38 34.6309C121.586 34.9634 121.797 35.2925 122.01 35.6203C122.197 35.9064 122.38 36.1943 122.561 36.4832C122.8 36.8629 123.04 37.2421 123.281 37.6207C123.313 37.6713 123.345 37.7218 123.378 37.7739C123.476 37.9285 123.575 38.0832 123.673 38.2378C124.068 38.8588 124.462 39.4801 124.855 40.1029C125.066 40.4377 125.278 40.7718 125.49 41.1058C125.814 41.6149 126.137 42.1247 126.458 42.6355C126.511 42.7205 126.565 42.8055 126.618 42.8904C126.697 43.0147 126.775 43.1392 126.853 43.2637C126.877 43.3013 126.9 43.3389 126.925 43.3776C127.087 43.6365 127.087 43.6365 127.087 43.698C126.174 43.7277 125.262 43.75 124.348 43.7637C123.924 43.7702 123.501 43.7791 123.077 43.7937C122.707 43.8064 122.337 43.8145 121.967 43.8174C121.771 43.819 121.576 43.8228 121.381 43.8321C120.196 43.8864 120.196 43.8864 119.843 43.5738C119.598 43.2698 119.431 42.9363 119.278 42.5782C119.193 42.384 119.087 42.2141 118.972 42.0365C118.922 41.9554 118.922 41.9554 118.871 41.8726C118.838 41.8197 118.806 41.7669 118.772 41.7125C118.46 41.2055 118.15 40.6974 117.842 40.1884C117.59 39.774 117.336 39.3614 117.08 38.9499C116.923 38.6969 116.77 38.4423 116.625 38.1826C116.469 38.2535 116.357 38.327 116.237 38.4488C116.206 38.4801 116.175 38.5114 116.143 38.5436C116.11 38.5773 116.077 38.6111 116.043 38.6458C116.009 38.6806 115.974 38.7155 115.939 38.7513C115.829 38.8626 115.719 38.9741 115.61 39.0858C115.5 39.1969 115.391 39.308 115.281 39.419C115.213 39.488 115.145 39.5571 115.077 39.6264C115.045 39.658 115.014 39.6897 114.982 39.7223C114.955 39.7499 114.928 39.7774 114.9 39.8059C114.808 39.8924 114.808 39.8924 114.661 39.9912C114.518 40.1031 114.518 40.1031 114.497 40.2756C114.497 40.3388 114.496 40.402 114.496 40.4671C114.494 40.5763 114.494 40.5763 114.493 40.6876C114.493 40.7647 114.493 40.8417 114.493 40.9188C114.493 40.989 114.492 41.0593 114.491 41.1316C114.488 41.3942 114.488 41.6567 114.488 41.9193C114.484 42.5063 114.481 43.0932 114.477 43.698C112.424 43.698 110.371 43.698 108.255 43.698C108.255 36.2357 108.255 28.7734 108.255 21.0849Z" fill="white"/>
<path d="M55.0636 21.0849C57.117 21.0849 59.1703 21.0849 61.2858 21.0849C61.304 25.1255 61.3222 29.1661 61.3409 33.3291C61.8925 32.6931 61.8925 32.6931 62.4288 32.0463C62.5689 31.8747 62.7118 31.7055 62.8551 31.5366C63.0409 31.3177 63.2247 31.0975 63.4058 30.8747C63.7109 30.4994 64.0243 30.1313 64.3372 29.7625C64.6393 29.4064 64.9385 29.0485 65.233 28.686C65.4464 28.4262 65.6632 28.1689 65.8844 27.9157C65.9715 27.811 65.9715 27.811 66.0528 27.6767C66.3111 27.2929 66.3111 27.2929 66.5629 27.212C66.752 27.1943 66.9341 27.1939 67.124 27.1995C67.1949 27.1994 67.2659 27.1994 67.339 27.1993C67.5324 27.1991 67.7257 27.2024 67.9191 27.2062C68.1216 27.2097 68.3242 27.21 68.5267 27.2106C68.9097 27.2124 69.2927 27.2169 69.6757 27.2224C70.1119 27.2286 70.5482 27.2316 70.9844 27.2344C71.8814 27.2401 72.7783 27.2498 73.6751 27.2621C73.5967 27.4264 73.5221 27.5368 73.3895 27.662C73.257 27.791 73.1311 27.9213 73.0109 28.0619C72.8162 28.2883 72.6128 28.5059 72.4087 28.7237C72.115 29.0367 72.115 29.0367 71.8305 29.358C71.6134 29.6107 71.384 29.852 71.1564 30.0952C70.9335 30.3337 70.7139 30.5747 70.4965 30.8183C70.3461 30.9855 70.1936 31.1508 70.0409 31.316C69.8467 31.5261 69.6536 31.737 69.4628 31.9502C69.2741 32.161 69.0834 32.3697 68.8915 32.5776C68.8638 32.6077 68.8361 32.6378 68.8075 32.6687C68.6672 32.821 68.5265 32.9728 68.3852 33.1242C68.3314 33.1821 68.2776 33.2401 68.2238 33.298C68.1761 33.3492 68.1284 33.4003 68.0793 33.4529C67.9458 33.608 67.8378 33.7633 67.7283 33.9358C67.7515 33.972 67.7747 34.0083 67.7987 34.0457C68.2095 34.6876 68.6199 35.3298 69.0258 35.9748C69.2326 36.3034 69.4404 36.6313 69.6486 36.9589C69.6808 37.0095 69.7129 37.0601 69.7461 37.1122C69.8443 37.2668 69.9426 37.4213 70.0409 37.5759C70.4359 38.197 70.8305 38.8182 71.2227 39.4411C71.4336 39.7759 71.6457 40.11 71.858 40.4439C72.1241 40.8622 72.3891 41.2811 72.6532 41.7006C72.9076 42.1044 73.1637 42.5071 73.4202 42.9096C73.451 42.958 73.4818 43.0065 73.5136 43.0564C73.5408 43.0991 73.5681 43.1418 73.5961 43.1859C73.6222 43.2275 73.6483 43.2691 73.6751 43.3119C73.7057 43.3604 73.7363 43.4089 73.7678 43.4589C73.8403 43.5877 73.8403 43.5877 73.8403 43.698C72.9328 43.7225 72.0254 43.741 71.1177 43.7523C70.6961 43.7577 70.2748 43.765 69.8533 43.7771C69.4857 43.7875 69.1183 43.7943 68.7505 43.7966C68.556 43.798 68.3618 43.8011 68.1673 43.8088C66.9882 43.8536 66.9882 43.8536 66.6632 43.5956C66.4479 43.3488 66.3085 43.0755 66.1843 42.7741C66.1131 42.6071 66.0223 42.463 65.9234 42.311C65.8653 42.2149 65.8073 42.1188 65.7494 42.0227C65.5025 41.6147 65.2539 41.2078 65.0026 40.8024C64.7138 40.3365 64.4282 39.8687 64.1442 39.3998C64.0063 39.1723 63.8683 38.9449 63.7273 38.7193C63.7063 38.6856 63.6853 38.6518 63.6636 38.6171C63.6101 38.5315 63.5564 38.4461 63.5026 38.3608C63.4333 38.2378 63.4333 38.2378 63.4333 38.1275C63.1629 38.3537 62.9098 38.5935 62.6624 38.8445C62.4815 39.0279 62.3008 39.2077 62.1049 39.3753C62.0576 39.4169 62.0576 39.4169 62.0094 39.4594C61.9255 39.532 61.8397 39.6022 61.7525 39.6708C61.4576 39.9254 61.3064 40.109 61.2733 40.5047C61.2712 40.6542 61.2717 40.8018 61.2751 40.9511C61.2745 41.021 61.274 41.0909 61.2735 41.163C61.2723 41.422 61.2759 41.681 61.2789 41.94C61.2812 42.5201 61.2835 43.1003 61.2858 43.698C59.2325 43.698 57.1792 43.698 55.0636 43.698C55.0636 36.2357 55.0636 28.7734 55.0636 21.0849Z" fill="white"/>
<path d="M50.2647 29.0092C51.8461 30.4808 52.6554 32.5004 52.751 34.6528C52.8231 36.9538 52.5328 39.3397 50.9889 41.1609C50.9488 41.2087 50.9087 41.2565 50.8674 41.3057C49.2314 43.1884 46.8382 43.8908 44.426 44.0668C41.6845 44.2002 38.8285 43.7733 36.7102 41.8986C36.6239 41.8185 36.5379 41.7381 36.4521 41.6573C36.419 41.6277 36.3858 41.598 36.3517 41.5675C34.8634 40.181 34.3264 37.958 34.2412 36.0047C34.1726 33.5394 34.693 31.1155 36.422 29.2761C37.7905 27.9222 39.5486 27.3006 41.4079 26.9864C41.4507 26.979 41.4935 26.9716 41.5377 26.9639C44.4368 26.49 48.0304 26.9789 50.2647 29.0092ZM41.1325 32.0605C40.4067 32.913 40.4524 34.2275 40.4544 35.274C40.4546 35.4651 40.4533 35.6561 40.4519 35.8472C40.4486 37.0038 40.5094 38.1978 41.3261 39.1023C41.9319 39.6723 42.7709 39.8595 43.579 39.8454C44.4423 39.7955 45.1984 39.5616 45.8117 38.9285C46.419 38.1699 46.5361 37.2154 46.54 36.2766C46.5403 36.2158 46.5406 36.155 46.5409 36.0923C46.5414 35.9638 46.5418 35.8354 46.542 35.7069C46.5425 35.5134 46.5442 35.3199 46.546 35.1264C46.5515 33.9679 46.4941 32.8173 45.7028 31.8951C45.1176 31.3168 44.3167 31.1003 43.514 31.1057C43.442 31.1061 43.442 31.1061 43.3684 31.1065C42.4643 31.1228 41.7586 31.401 41.1325 32.0605Z" fill="white"/>
<path d="M142.534 29.0207C144.035 30.3657 144.81 32.2793 144.983 34.2667C144.991 34.4469 144.993 34.6269 144.994 34.8072C144.994 34.8578 144.994 34.9083 144.995 34.9604C144.995 35.0671 144.996 35.1737 144.996 35.2804C144.996 35.4396 144.998 35.5989 145 35.7581C145.005 36.65 144.927 37.5291 144.666 38.386C144.652 38.4336 144.638 38.4812 144.623 38.5303C144.305 39.572 143.847 40.5154 143.11 41.3264C143.082 41.3579 143.053 41.3895 143.024 41.422C141.353 43.248 138.92 43.9567 136.512 44.0752C133.883 44.1844 131.123 43.7514 129.069 41.9882C129.013 41.9428 129.013 41.9428 128.955 41.8965C128.636 41.6325 128.385 41.3232 128.133 40.9955C128.101 40.9543 128.069 40.9131 128.035 40.8707C127.031 39.517 126.535 37.769 126.525 36.0928C126.525 36.0476 126.524 36.0025 126.524 35.956C126.523 35.8111 126.523 35.6663 126.522 35.5214C126.522 35.4719 126.522 35.4224 126.522 35.3715C126.523 34.6414 126.546 33.9345 126.701 33.2188C126.715 33.1512 126.715 33.1512 126.729 33.0822C127.137 31.1096 128.21 29.4234 129.895 28.3101C133.411 26.0285 139.351 26.2396 142.534 29.0207ZM133.805 31.6745C133.766 31.7036 133.728 31.7328 133.689 31.7628C133.438 31.983 133.279 32.2399 133.127 32.5328C133.109 32.5662 133.091 32.5996 133.072 32.634C132.674 33.4491 132.732 34.3735 132.737 35.2563C132.738 35.4426 132.737 35.6289 132.736 35.8153C132.712 37.1628 132.712 37.1628 133.127 38.4274C133.156 38.4826 133.156 38.4826 133.185 38.5391C133.528 39.1665 134.045 39.4819 134.706 39.7183C135.604 39.9636 136.639 39.8736 137.461 39.4359C138.092 39.0457 138.448 38.4765 138.65 37.7696C138.82 37.0327 138.827 36.2843 138.826 35.5318C138.826 35.4894 138.826 35.447 138.826 35.4034C138.823 33.4909 138.823 33.4909 137.928 31.8503C137.258 31.2235 136.385 31.0768 135.5 31.1037C134.887 31.1382 134.298 31.2945 133.805 31.6745Z" fill="white"/>
<path d="M82.4922 26.8623C82.5384 26.8622 82.5846 26.8622 82.6322 26.8622C85.2276 26.8655 87.7998 27.496 89.6987 29.358C89.8771 29.5517 90.0382 29.7526 90.1942 29.9647C90.226 30.0054 90.2577 30.0462 90.2904 30.0881C91.4321 31.6174 91.8034 33.5359 91.8048 35.4077C91.8049 35.4503 91.8049 35.4929 91.805 35.5369C91.8034 36.6359 91.6803 37.6827 91.3506 38.7341C91.3387 38.772 91.3269 38.8098 91.3147 38.8488C90.7244 40.6792 89.4298 42.1322 87.7343 43.0086C86.2994 43.7228 84.6863 44.0388 83.091 44.0841C83.0506 44.0853 83.0101 44.0865 82.9685 44.0877C80.2428 44.1564 77.608 43.5703 75.5413 41.7187C73.9473 40.1956 73.3362 37.925 73.2828 35.7815C73.2424 33.3831 73.7959 31.0752 75.478 29.2957C76.9043 27.8264 78.8971 27.1652 80.8885 26.9312C80.9321 26.9259 80.9758 26.9207 81.0207 26.9152C81.5101 26.863 82.0006 26.8626 82.4922 26.8623ZM80.3471 31.869C79.6313 32.6868 79.5039 33.7421 79.5026 34.7913C79.5025 34.8449 79.5023 34.8984 79.5021 34.9536C79.5018 35.0663 79.5017 35.179 79.5017 35.2916C79.5016 35.4614 79.5006 35.6312 79.4995 35.801C79.4964 36.8802 79.5429 37.9243 80.1727 38.8445C80.2204 38.9178 80.2204 38.9178 80.269 38.9927C80.8682 39.6095 81.6695 39.826 82.5094 39.851C83.3688 39.8243 84.1755 39.6334 84.798 39.0099C85.4584 38.2656 85.5862 37.2737 85.5854 36.3151C85.5858 36.2168 85.5858 36.2168 85.5862 36.1166C85.5865 35.9788 85.5865 35.8411 85.5863 35.7033C85.5861 35.4952 85.5874 35.2871 85.5888 35.0789C85.5918 33.9482 85.5723 32.7643 84.7429 31.8951C84.0256 31.2214 83.2066 31.09 82.261 31.1091C81.5372 31.1369 80.8776 31.3659 80.3471 31.869Z" fill="white"/>
<path d="M105.887 27.1518C105.991 27.256 105.949 27.4078 105.949 27.5464C105.949 27.5952 105.949 27.644 105.949 27.6942C105.949 27.7453 105.949 27.7965 105.949 27.8491C105.949 28.0189 105.948 28.1887 105.948 28.3585C105.948 28.4759 105.948 28.5933 105.948 28.7107C105.947 29.0204 105.947 29.33 105.946 29.6397C105.946 29.9554 105.945 30.2711 105.945 30.5868C105.945 31.2067 105.944 31.8267 105.942 32.4466C105.835 32.4478 105.835 32.4478 105.725 32.449C105.454 32.4523 105.183 32.4565 104.912 32.4611C104.795 32.4629 104.679 32.4645 104.562 32.4657C103.337 32.4794 102.162 32.5299 101.225 33.4163C100.462 34.2273 100.374 35.4312 100.37 36.4849C100.369 36.5638 100.369 36.6426 100.368 36.7215C100.367 36.9344 100.365 37.1474 100.364 37.3603C100.363 37.5833 100.362 37.8062 100.36 38.0292C100.357 38.4509 100.355 38.8726 100.353 39.2943C100.349 39.8645 100.346 40.4347 100.342 41.005C100.336 41.9026 100.331 42.8003 100.326 43.698C98.2726 43.698 96.2193 43.698 94.1038 43.698C94.1038 38.2742 94.1038 32.8503 94.1038 27.2621C95.7937 27.2621 97.4836 27.2621 99.2247 27.2621C99.3519 28.0084 99.4791 28.7546 99.6101 29.5235C99.7555 29.2686 99.9008 29.0138 100.051 28.7513C100.854 27.6661 101.958 27.0564 103.282 26.8588C104.18 26.7599 105.036 26.8378 105.887 27.1518Z" fill="white"/>
<path d="M44.0645 4.39095C44.5796 4.74795 44.7991 5.20239 44.9319 5.80729C45.0038 6.25483 44.8783 6.76261 44.6342 7.14064C44.4079 7.44935 44.1568 7.66837 43.8444 7.8859C43.7512 7.95274 43.658 8.0196 43.5648 8.08648C43.5175 8.12006 43.4702 8.15365 43.4214 8.18825C43.1979 8.34784 42.9775 8.51167 42.7569 8.67529C42.6697 8.73966 42.5826 8.804 42.4954 8.86833C42.4522 8.90018 42.409 8.93203 42.3646 8.96485C40.8389 10.0909 39.3131 11.217 37.7874 12.343C37.7442 12.3749 37.701 12.4068 37.6565 12.4396C37.5697 12.5037 37.483 12.5677 37.3962 12.6317C37.1719 12.7972 36.9477 12.9628 36.7238 13.1287C35.8399 13.7831 35.8399 13.7831 35.4059 14.0804C35.3877 14.044 35.3696 14.0076 35.3509 13.9701C35.4254 13.834 35.4254 13.834 35.5423 13.6585C35.5637 13.6262 35.585 13.5938 35.607 13.5604C35.6796 13.4508 35.7527 13.3416 35.8258 13.2324C35.8777 13.154 35.9297 13.0757 35.9815 12.9973C36.0952 12.8257 36.209 12.6542 36.323 12.4828C36.5141 12.1951 36.7038 11.9066 36.8933 11.6178C37.5402 10.6323 38.1892 9.64806 38.8436 8.66747C39.1801 8.16339 39.5146 7.65812 39.8471 7.15145C39.8831 7.09674 39.919 7.04203 39.956 6.98566C40.1319 6.71764 40.3077 6.4495 40.4832 6.18119C41.6775 4.35805 41.6775 4.35805 42.3979 4.13199C42.9944 4.00833 43.5399 4.08208 44.0645 4.39095Z" fill="#F7931E"/>
<path d="M36.6311 0.309566C37.0538 0.603057 37.3596 1.02322 37.4734 1.52877C37.5507 1.96853 37.4922 2.34162 37.3669 2.76499C37.3452 2.83957 37.3452 2.83957 37.3231 2.91566C37.1056 3.65657 36.8737 4.3932 36.6437 5.13029C36.5322 5.48811 36.4209 5.84602 36.3096 6.20392C36.2803 6.29806 36.251 6.3922 36.2218 6.48633C35.9833 7.25258 35.7462 8.0192 35.5096 8.78603C35.477 8.89181 35.4443 8.99759 35.4117 9.10337C35.2845 9.51568 35.1572 9.92801 35.0302 10.3404C34.9559 10.5816 34.8815 10.8228 34.8071 11.0639C34.7799 11.1522 34.7527 11.2405 34.7255 11.3288C34.5557 11.8808 34.3793 12.4301 34.1945 12.9773C34.1763 12.9773 34.1582 12.9773 34.1395 12.9773C34.0515 11.8323 33.9867 10.6869 33.9292 9.5401C33.9197 9.3504 33.9101 9.16071 33.9005 8.97102C33.8778 8.52313 33.8552 8.07523 33.8328 7.62732C33.8099 7.16882 33.7866 6.71034 33.7632 6.25186C33.7429 5.85411 33.7228 5.45635 33.7029 5.05858C33.691 4.82278 33.6791 4.58697 33.667 4.35118C33.5811 2.6731 33.5811 2.6731 33.5774 2.03799C33.577 1.99836 33.5766 1.95874 33.5762 1.91791C33.5791 1.39069 33.7802 0.947586 34.1395 0.567669C34.8376 -0.0947176 35.8101 -0.172966 36.6311 0.309566Z" fill="#F15A24"/>
<path d="M48.5248 11.5812C48.8995 11.8879 49.2016 12.2709 49.282 12.7567C49.3337 13.3403 49.3065 13.8622 48.9483 14.3428C48.5777 14.7723 48.1794 15.0773 47.6039 15.1441C47.4549 15.1507 47.3067 15.1524 47.1576 15.1521C47.1011 15.1527 47.0446 15.1533 46.9864 15.1538C46.7993 15.1555 46.6121 15.156 46.4249 15.1565C46.2915 15.1574 46.158 15.1585 46.0246 15.1595C45.7036 15.1619 45.3827 15.1635 45.0617 15.1648C44.803 15.1658 44.5443 15.1672 44.2856 15.1689C44.2306 15.1693 44.2306 15.1693 44.1744 15.1696C44.1002 15.1701 44.0259 15.1706 43.9516 15.1711C41.4518 15.1871 38.952 15.1903 36.4521 15.1834C36.6209 14.9984 36.8116 14.9343 37.0434 14.8534C37.1097 14.8296 37.1097 14.8296 37.1773 14.8053C37.2747 14.7703 37.3722 14.7356 37.4697 14.701C37.744 14.6037 38.0176 14.5048 38.2914 14.4061C38.3508 14.3848 38.4102 14.3634 38.4713 14.3414C39.1842 14.0845 39.8941 13.82 40.6041 13.5555C40.7858 13.4878 40.9674 13.4202 41.1491 13.3526C41.3678 13.2712 41.5866 13.1898 41.8053 13.1084C42.2991 12.9246 42.7929 12.7412 43.2869 12.558C43.3536 12.5333 43.4203 12.5086 43.489 12.4831C43.7435 12.3888 43.9979 12.2945 44.2523 12.2002C44.4242 12.1365 44.5961 12.0728 44.768 12.0091C44.8223 11.989 44.8765 11.9689 44.9324 11.9482C45.2206 11.8413 45.5084 11.7334 45.7958 11.6242C45.8561 11.6014 45.9164 11.5785 45.9785 11.555C46.0937 11.5113 46.2089 11.4673 46.324 11.4232C46.3757 11.4036 46.4274 11.384 46.4807 11.3638C46.5487 11.3378 46.5487 11.3378 46.618 11.3114C47.2781 11.0905 47.9533 11.186 48.5248 11.5812Z" fill="#F15A24"/>
</g>
</g>
</svg>
